<?xml version="1.0" standalone="no"?>
<!DOCTYPE svg PUBLIC "-//W3C//DTD SVG 20010904//EN"
 "http://www.w3.org/TR/2001/REC-SVG-20010904/DTD/svg10.dtd">
<svg version="1.0" xmlns="http://www.w3.org/2000/svg"
 width="50px" height="50px" viewBox="0 0 512.000000 512.000000"
 preserveAspectRatio="xMidYMid meet">

<g transform="translate(0.000000,512.000000) scale(0.100000,-0.100000)"
fill="#000000" stroke="none">
<path d="M2395 5109 c-166 -24 -338 -90 -482 -184 -76 -50 -207 -177 -934
-904 -821 -821 -847 -848 -886 -926 -23 -44 -52 -111 -65 -150 l-23 -70 -3
-1195 c-2 -858 0 -1212 8 -1255 38 -202 214 -378 414 -414 84 -15 4189 -15
4272 0 203 37 379 216 414 419 8 45 10 423 8 1255 l-3 1190 -23 70 c-13 39
-42 106 -65 150 -39 78 -65 105 -886 927 -743 743 -857 853 -936 904 -241 156
-536 223 -810 183z m339 -658 c33 -12 82 -35 110 -53 57 -35 1598 -1566 1622
-1610 12 -23 14 -188 14 -1088 l0 -1060 -535 0 -535 0 0 385 c0 415 -6 475
-55 598 -76 185 -239 356 -421 438 -111 51 -211 69 -374 69 -265 0 -432 -63
-603 -229 -117 -112 -190 -240 -227 -395 -18 -73 -20 -119 -20 -473 l0 -393
-535 0 -535 0 0 1060 c0 901 2 1065 14 1088 20 38 1551 1563 1606 1600 135 90
324 115 474 63z"/>
</g>
</svg>
