<?xml version="1.0" standalone="no"?>
<!DOCTYPE svg PUBLIC "-//W3C//DTD SVG 20010904//EN"
 "http://www.w3.org/TR/2001/REC-SVG-20010904/DTD/svg10.dtd">
<svg version="1.0" xmlns="http://www.w3.org/2000/svg"
 width="50px" height="50px" viewBox="0 0 512.000000 512.000000"
 preserveAspectRatio="xMidYMid meet">

<g transform="translate(0.000000,512.000000) scale(0.100000,-0.100000)"
fill="#000000" stroke="none">
<path d="M406 4465 c-137 -35 -283 -150 -345 -273 -134 -266 -29 -592 233
-720 87 -43 139 -55 236 -55 242 -1 446 152 516 388 21 70 23 208 4 275 -47
171 -171 306 -336 367 -88 31 -222 39 -308 18z"/>
<path d="M1629 4256 c-145 -39 -239 -160 -239 -309 0 -34 8 -84 17 -111 23
-63 92 -140 157 -174 l51 -27 1640 0 1640 0 43 23 c66 35 119 88 149 150 38
76 40 191 5 267 -43 93 -130 163 -230 184 -80 17 -3171 14 -3233 -3z"/>
<path d="M400 3076 c-178 -50 -314 -178 -370 -346 -115 -344 139 -699 500
-700 235 0 441 148 511 369 29 91 29 231 0 322 -54 172 -200 308 -376 354 -70
18 -202 18 -265 1z"/>
<path d="M1590 2752 c-64 -24 -160 -123 -183 -187 -55 -159 18 -332 171 -403
l57 -27 1610 0 c1829 0 1666 -8 1769 86 74 67 100 129 101 234 0 68 -4 89 -28
137 -30 62 -83 115 -149 150 l-43 23 -1630 2 c-1505 2 -1633 0 -1675 -15z"/>
<path d="M406 1585 c-137 -35 -283 -150 -345 -273 -134 -266 -29 -592 233
-720 87 -43 139 -55 236 -55 242 -1 446 152 516 388 21 70 23 208 4 275 -47
171 -171 306 -336 367 -88 31 -222 39 -308 18z"/>
<path d="M1602 1261 c-66 -23 -117 -63 -159 -125 -43 -63 -56 -116 -51 -201 8
-116 71 -211 176 -262 l57 -28 1630 0 1630 0 63 34 c70 38 101 70 140 145 22
43 26 64 26 136 1 78 -2 90 -33 148 -37 69 -79 109 -151 144 l-45 23 -1615 2
c-1545 2 -1617 2 -1668 -16z"/>
</g>
</svg>
