<?xml version="1.0" standalone="no"?>
<!DOCTYPE svg PUBLIC "-//W3C//DTD SVG 20010904//EN"
 "http://www.w3.org/TR/2001/REC-SVG-20010904/DTD/svg10.dtd">
<svg version="1.0" xmlns="http://www.w3.org/2000/svg"
 width="50px" height="50px" viewBox="0 0 512.000000 512.000000"
 preserveAspectRatio="xMidYMid meet">

<g transform="translate(0.000000,512.000000) scale(0.100000,-0.100000)"
fill="#000000" stroke="none">
<path d="M869 4674 c-367 -66 -683 -339 -808 -698 -62 -175 -61 -158 -61
-1416 0 -1258 -1 -1241 61 -1416 117 -337 386 -584 747 -687 l77 -22 1625 -3
c1161 -2 1648 0 1705 8 379 53 714 333 844 704 62 175 61 158 61 1416 0 1258
1 1241 -61 1416 -126 363 -443 634 -816 699 -123 21 -3256 21 -3374 -1z m3271
-414 c154 -25 292 -98 390 -208 58 -64 122 -188 145 -277 23 -89 23 -2341 0
-2430 -63 -250 -262 -435 -515 -481 -111 -20 -3089 -20 -3200 0 -146 26 -280
101 -375 208 -54 61 -128 209 -144 286 -15 74 -15 2330 0 2404 16 81 91 225
149 290 95 107 245 188 384 208 81 12 3090 12 3166 0z"/>
<path d="M2900 3616 c-165 -36 -296 -167 -331 -333 -6 -34 -9 -155 -7 -330 3
-257 5 -282 25 -331 48 -117 145 -209 266 -252 54 -19 82 -20 555 -20 429 0
506 2 553 16 75 23 128 56 187 117 104 111 122 182 122 497 0 124 -4 251 -10
284 -30 183 -173 326 -356 356 -87 15 -936 11 -1004 -4z m940 -631 l0 -215
-425 0 -425 0 0 215 0 215 425 0 425 0 0 -215z"/>
<path d="M980 2754 c-173 -76 -161 -342 18 -394 25 -8 194 -10 518 -8 l480 3
37 25 c21 14 50 43 65 64 24 35 27 49 27 116 0 65 -4 82 -25 113 -14 21 -43
50 -64 65 l-39 27 -491 2 c-422 2 -496 0 -526 -13z"/>
<path d="M971 1894 c-90 -45 -134 -140 -110 -238 16 -67 85 -138 151 -154 35
-9 432 -12 1551 -12 1695 0 1574 -6 1645 76 96 109 68 264 -59 328 l-53 26
-1536 0 -1536 0 -53 -26z"/>
</g>
</svg>
