<?xml version="1.0" standalone="no"?>
<!DOCTYPE svg PUBLIC "-//W3C//DTD SVG 20010904//EN"
 "http://www.w3.org/TR/2001/REC-SVG-20010904/DTD/svg10.dtd">
<svg version="1.0" xmlns="http://www.w3.org/2000/svg"
 width="50px" height="50px" viewBox="0 0 512.000000 512.000000"
 preserveAspectRatio="xMidYMid meet">

<g transform="translate(0.000000,512.000000) scale(0.100000,-0.100000)"
fill="#000000" stroke="none">
<path d="M1176 5110 c-229 -37 -435 -136 -598 -289 -218 -205 -327 -423 -359
-720 -31 -282 70 -598 262 -822 l48 -56 -81 -64 c-235 -185 -389 -450 -434
-749 -21 -140 -20 -1272 1 -1413 76 -504 478 -906 982 -982 82 -12 271 -15
1135 -15 681 0 1063 4 1113 11 444 61 815 367 959 789 14 41 30 74 36 73 5 -2
71 -46 147 -98 165 -116 232 -141 350 -132 133 10 265 93 326 205 56 103 57
115 57 873 0 666 -1 700 -20 761 -37 119 -105 198 -220 252 -60 29 -73 31
-170 31 -96 0 -111 -3 -170 -30 -36 -16 -117 -72 -180 -122 -63 -51 -118 -93
-121 -93 -4 0 -16 31 -28 69 -67 220 -228 450 -409 583 -31 23 -58 43 -60 44
-2 1 25 39 60 83 179 226 256 460 245 746 -6 174 -36 297 -107 441 -240 493
-794 740 -1317 588 -161 -46 -317 -133 -433 -241 -52 -48 -59 -51 -71 -36 -26
31 -160 132 -228 172 -85 50 -201 96 -305 122 -94 23 -317 33 -410 19z m256
-641 c220 -46 378 -242 378 -469 0 -224 -144 -408 -365 -465 -297 -76 -588
154 -588 465 0 305 277 531 575 469z m1600 0 c220 -46 378 -242 378 -469 0
-224 -144 -408 -365 -465 -297 -76 -588 154 -588 465 0 305 277 531 575 469z
m191 -1714 c177 -46 321 -181 379 -354 22 -64 22 -80 26 -641 4 -660 1 -697
-58 -815 -67 -137 -158 -219 -300 -275 l-65 -25 -1035 -3 c-739 -2 -1052 0
-1095 8 -204 39 -382 214 -424 418 -7 35 -11 252 -11 640 0 652 1 659 65 781
53 100 155 197 253 238 98 42 86 41 1167 42 892 1 1049 -1 1098 -14z"/>
</g>
</svg>
